# xmcd CD database file
# 
# Track frame offsets:
# 	150
# 	19403
# 	33555
# 	49826
# 	64782
# 	84871
# 
# Disc length: 1323 seconds
# 
# Submitted via: Nero 6, 6, 0, 0
# 
# Revision: 0
# Processed by: cddbd v1.5.1PL0 Copyright (c) Steve Scherf et al.
#
DISCID=47052906
DTITLE=Dream Maker - Dream Maker
DYEAR=1900
DGENRE=
TTITLE0=Dream Maker
TTITLE1=Troubles Here
TTITLE2=Feel Free
TTITLE3=Storms Never Last
TTITLE4=Never Ever Never
TTITLE5=I Never Really Really Knew You
EXTD=
EXTT0=
EXTT1=
EXTT2=
EXTT3=
EXTT4=
EXTT5=
PLAYORDER=
